<svg width="23" height="22" viewBox="0 0 23 22" fill="none" xmlns="http://www.w3.org/2000/svg">
<g clip-path="url(#clip0_106_37)">
<path d="M16.2734 0H6.65293C3.38262 0 0.731445 2.71746 0.731445 6.06953V15.9305C0.731445 19.2825 3.38262 22 6.65293 22H16.2734C19.5437 22 22.1949 19.2825 22.1949 15.9305V6.06953C22.1949 2.71746 19.5437 0 16.2734 0ZM20.2898 15.9305C20.2898 18.2086 18.48 20.0473 16.2734 20.0473H6.65293C4.43039 20.0473 2.63648 18.1923 2.63648 15.9305V6.06953C2.63648 3.80769 4.44627 1.95266 6.65293 1.95266H16.2734C18.4959 1.95266 20.2898 3.80769 20.2898 6.06953V15.9305Z" fill="black"/>
<path d="M11.4633 5.33691C8.41527 5.33691 5.92285 7.87538 5.92285 10.9996C5.92285 14.1239 8.3994 16.6786 11.4633 16.6786C14.5114 16.6786 17.0038 14.1402 17.0038 10.9996C17.0038 7.87538 14.5114 5.33691 11.4633 5.33691ZM11.4633 14.726C9.46304 14.726 7.82789 13.0662 7.82789 11.0159C7.84376 8.94934 9.46304 7.28958 11.4633 7.28958C13.4636 7.28958 15.0988 8.94934 15.0988 10.9996C15.0988 13.0499 13.4636 14.726 11.4633 14.726Z" fill="black"/>
<path d="M17.2256 3.67773C16.8605 3.67773 16.4954 3.82418 16.2414 4.10081C15.9874 4.36117 15.8286 4.73543 15.8286 5.10969C15.8286 5.48395 15.9715 5.85821 16.2414 6.11856C16.4954 6.37892 16.8605 6.54164 17.2256 6.54164C17.5908 6.54164 17.9559 6.39519 18.2099 6.11856C18.4639 5.85821 18.6227 5.48395 18.6227 5.10969C18.6227 4.73543 18.4798 4.36117 18.2099 4.10081C17.9559 3.82418 17.6066 3.67773 17.2256 3.67773Z" fill="black"/>
</g>
<defs>
<clipPath id="clip0_106_37">
<rect width="21.4634" height="22" fill="white" transform="translate(0.731445)"/>
</clipPath>
</defs>
</svg>
