<svg width="23" height="22" viewBox="0 0 23 22" fill="none" xmlns="http://www.w3.org/2000/svg">
<g clip-path="url(#clip0_106_26)">
<path d="M5.42992 7.14941H0.610352V22H5.42992V7.14941Z" fill="black"/>
<path d="M21.2562 8.50584C20.2475 7.3794 18.9025 6.80469 17.2436 6.80469C16.6384 6.80469 16.078 6.87365 15.5624 7.03457C15.0692 7.19549 14.6433 7.40239 14.2846 7.67825C13.9484 7.95411 13.657 8.20699 13.4552 8.45986C13.2535 8.68974 13.0741 8.94262 12.8948 9.24147V7.12653H8.09766L8.12007 7.83917C8.12007 8.32193 8.14249 9.79319 8.14249 12.276C8.14249 14.7587 8.14249 17.9771 8.12007 21.9771H12.9172V13.7012C12.9172 13.1955 12.9621 12.7817 13.0741 12.4828C13.2759 11.9771 13.5897 11.5403 13.9932 11.1955C14.3967 10.8507 14.9123 10.6897 15.54 10.6897C16.3694 10.6897 16.997 10.9886 17.3781 11.5863C17.7816 12.184 17.961 13.0116 17.961 14.0461V21.9771H22.7581V13.4714C22.7805 11.2874 22.2874 9.63227 21.2562 8.50584Z" fill="black"/>
<path d="M3.05372 0C2.24672 0 1.59664 0.252874 1.10347 0.735632C0.587891 1.21839 0.341309 1.81609 0.341309 2.55172C0.341309 3.28736 0.587891 3.88506 1.08106 4.39081C1.57422 4.87356 2.20189 5.12644 3.00889 5.12644H3.0313C3.86072 5.12644 4.5108 4.87356 5.00396 4.39081C5.49713 3.90805 5.74371 3.28736 5.74371 2.55172C5.74371 1.81609 5.47471 1.1954 5.00396 0.712644C4.5108 0.252874 3.86072 0 3.05372 0Z" fill="black"/>
</g>
<defs>
<clipPath id="clip0_106_26">
<rect width="22.439" height="22" fill="white" transform="translate(0.341309)"/>
</clipPath>
</defs>
</svg>
