<svg width="25" height="20" viewBox="0 0 25 20" fill="none" xmlns="http://www.w3.org/2000/svg">
<g clip-path="url(#clip0_106_31)">
<path d="M24.6811 2.3741C23.7311 2.78177 22.7574 3.04556 21.8075 3.16547C22.8999 2.51799 23.6124 1.58273 24.0161 0.383693C23.0187 0.959233 21.9499 1.36691 20.8337 1.58273C19.8363 0.527578 18.6251 0 17.1764 0C15.7989 0 14.6115 0.503597 13.6378 1.48681C12.6641 2.47002 12.1653 3.66906 12.1653 5.05995C12.1653 5.44365 12.2128 5.82734 12.2841 6.21103C10.2417 6.11511 8.31801 5.58753 6.53683 4.65228C4.75565 3.71703 3.23572 2.47002 1.97702 0.935252C1.52579 1.72662 1.2883 2.56595 1.2883 3.47722C1.2883 4.34053 1.47829 5.15588 1.88202 5.8753C2.28576 6.6187 2.83198 7.21823 3.49696 7.67386C2.68949 7.64988 1.92952 7.43405 1.2408 7.02638V7.09832C1.2408 8.32134 1.62078 9.3765 2.38075 10.3118C3.14072 11.223 4.09068 11.8225 5.25438 12.0623C4.8269 12.1823 4.37567 12.2302 3.94819 12.2302C3.6632 12.2302 3.35446 12.2062 2.99823 12.1583C3.30696 13.1655 3.90069 14.0048 4.75565 14.6523C5.61062 15.2998 6.58433 15.6355 7.67678 15.6595C5.87186 17.0983 3.78194 17.8177 1.47829 17.8177C1.02706 17.8177 0.623325 17.7938 0.26709 17.7458C2.59449 19.2566 5.15939 20 7.93802 20C9.7192 20 11.3816 19.7122 12.9491 19.1607C14.5165 18.5851 15.8464 17.8417 16.9389 16.8825C18.0314 15.9233 19.0051 14.8201 19.7888 13.5971C20.5963 12.3501 21.19 11.0552 21.57 9.71223C21.9499 8.3693 22.1637 7.0024 22.1637 5.65947C22.1637 5.3717 22.1637 5.15588 22.1399 5.01199C23.1611 4.26858 23.9924 3.40528 24.6811 2.3741Z" fill="black"/>
</g>
<defs>
<clipPath id="clip0_106_31">
<rect width="24.3902" height="20" fill="white" transform="translate(0.29248)"/>
</clipPath>
</defs>
</svg>
