<svg width="29" height="20" viewBox="0 0 29 20" fill="none" xmlns="http://www.w3.org/2000/svg">
<g clip-path="url(#clip0_106_23)">
<path d="M28.2298 7.64988C28.2298 7.09832 28.183 6.3789 28.0894 5.51559C28.0192 4.65228 27.9023 3.88489 27.7619 3.21343C27.5981 2.44604 27.2472 1.82254 26.7091 1.29496C26.171 0.767386 25.5393 0.479616 24.814 0.383693C22.568 0.119904 19.1522 0 14.59 0C10.0278 0 6.61197 0.119904 4.36596 0.383693C3.64068 0.479616 3.00899 0.767386 2.47089 1.29496C1.93278 1.82254 1.58184 2.44604 1.41807 3.21343C1.2543 3.88489 1.16072 4.65228 1.06713 5.51559C0.996946 6.3789 0.950154 7.09832 0.926758 7.64988C0.926758 8.22542 0.926758 8.99281 0.926758 10C0.926758 11.0072 0.926758 11.7746 0.950154 12.3501C0.950154 12.9017 0.996946 13.6211 1.09053 14.4844C1.13732 15.3477 1.2543 16.1151 1.39468 16.7866C1.55845 17.554 1.90939 18.1775 2.44749 18.705C2.9856 19.2326 3.61729 19.5204 4.34256 19.6163C6.58857 19.8801 10.0044 20 14.5666 20C19.1288 20 22.5446 19.8801 24.7906 19.6163C25.5159 19.5444 26.1476 19.2326 26.6857 18.705C27.2238 18.1775 27.5747 17.554 27.7385 16.7866C27.9023 16.1151 27.9958 15.3477 28.0894 14.4844C28.1596 13.6211 28.2064 12.9017 28.2298 12.3501C28.2298 11.7986 28.2532 11.0072 28.2532 10C28.2532 8.99281 28.2532 8.22542 28.2298 7.64988ZM19.9944 10.8393L12.1802 15.8513C12.0398 15.9472 11.876 16.0192 11.6655 16.0192C11.5017 16.0192 11.3613 15.9712 11.1976 15.8993C10.87 15.7074 10.6829 15.4197 10.6829 15.012V5.01199C10.6829 4.60432 10.8466 4.31655 11.1976 4.1247C11.5485 3.93285 11.876 3.95683 12.1802 4.14868L16.0873 6.65468L19.9944 9.16067C20.2986 9.32854 20.4623 9.61631 20.4623 10C20.439 10.3837 20.2986 10.6715 19.9944 10.8393Z" fill="black"/>
</g>
<defs>
<clipPath id="clip0_106_23">
<rect width="27.3264" height="20" fill="white" transform="translate(0.926758)"/>
</clipPath>
</defs>
</svg>
